<mxfile host="65bd71144e">
    <diagram id="5J29raPD4ZtxqeM8KIw8" name="Page-1">
        <mxGraphModel dx="1074" dy="741" grid="1" gridSize="10" guides="1" tooltips="1" connect="1" arrows="1" fold="1" page="1" pageScale="1" pageWidth="827" pageHeight="1169" math="0" shadow="0">
            <root>
                <mxCell id="0"/>
                <mxCell id="1" parent="0"/>
                <mxCell id="22" value="" style="edgeStyle=orthogonalEdgeStyle;shape=connector;rounded=0;html=1;labelBackgroundColor=default;fontFamily=Helvetica;fontSize=11;fontColor=default;endArrow=classic;strokeColor=default;" edge="1" parent="1" source="2" target="3">
                    <mxGeometry relative="1" as="geometry"/>
                </mxCell>
                <mxCell id="2" value="Start" style="strokeWidth=2;html=1;shape=mxgraph.flowchart.start_1;whiteSpace=wrap;" vertex="1" parent="1">
                    <mxGeometry x="210" y="210" width="100" height="60" as="geometry"/>
                </mxCell>
                <mxCell id="6" style="edgeStyle=none;html=1;exitX=0.5;exitY=1;exitDx=0;exitDy=0;entryX=0.5;entryY=0;entryDx=0;entryDy=0;entryPerimeter=0;" edge="1" parent="1" source="3" target="5">
                    <mxGeometry relative="1" as="geometry"/>
                </mxCell>
                <mxCell id="3" value="Get year" style="shape=parallelogram;html=1;strokeWidth=2;perimeter=parallelogramPerimeter;whiteSpace=wrap;rounded=1;arcSize=12;size=0.23;" vertex="1" parent="1">
                    <mxGeometry x="350" y="210" width="100" height="60" as="geometry"/>
                </mxCell>
                <mxCell id="8" value="yes" style="edgeStyle=none;html=1;exitX=0.5;exitY=1;exitDx=0;exitDy=0;exitPerimeter=0;entryX=0.5;entryY=0;entryDx=0;entryDy=0;" edge="1" parent="1" source="5" target="7">
                    <mxGeometry relative="1" as="geometry"/>
                </mxCell>
                <mxCell id="16" value="exception" style="edgeStyle=orthogonalEdgeStyle;shape=connector;rounded=0;html=1;exitX=1;exitY=0.5;exitDx=0;exitDy=0;exitPerimeter=0;entryX=0.5;entryY=0;entryDx=0;entryDy=0;labelBackgroundColor=default;fontFamily=Helvetica;fontSize=11;fontColor=default;endArrow=classic;strokeColor=default;" edge="1" parent="1" source="5" target="15">
                    <mxGeometry relative="1" as="geometry"/>
                </mxCell>
                <mxCell id="5" value="Try" style="strokeWidth=2;html=1;shape=mxgraph.flowchart.decision;whiteSpace=wrap;" vertex="1" parent="1">
                    <mxGeometry x="350" y="290" width="100" height="100" as="geometry"/>
                </mxCell>
                <mxCell id="10" value="" style="edgeStyle=none;html=1;" edge="1" parent="1" source="7" target="9">
                    <mxGeometry relative="1" as="geometry"/>
                </mxCell>
                <mxCell id="7" value="Convert year to string" style="rounded=0;whiteSpace=wrap;html=1;" vertex="1" parent="1">
                    <mxGeometry x="340" y="430" width="120" height="60" as="geometry"/>
                </mxCell>
                <mxCell id="12" value="yes" style="edgeStyle=none;html=1;" edge="1" parent="1" source="9" target="11">
                    <mxGeometry relative="1" as="geometry"/>
                </mxCell>
                <mxCell id="14" value="no" style="edgeStyle=orthogonalEdgeStyle;html=1;exitX=1;exitY=0.5;exitDx=0;exitDy=0;exitPerimeter=0;entryX=0.5;entryY=0;entryDx=0;entryDy=0;rounded=0;" edge="1" parent="1" source="9" target="13">
                    <mxGeometry relative="1" as="geometry"/>
                </mxCell>
                <mxCell id="9" value="If&amp;nbsp;integer%4 = 0 &amp;amp;&amp;amp; integer%100 != 0" style="strokeWidth=2;html=1;shape=mxgraph.flowchart.decision;whiteSpace=wrap;" vertex="1" parent="1">
                    <mxGeometry x="330" y="510" width="140" height="130" as="geometry"/>
                </mxCell>
                <mxCell id="19" value="" style="edgeStyle=orthogonalEdgeStyle;shape=connector;rounded=0;html=1;labelBackgroundColor=default;fontFamily=Helvetica;fontSize=11;fontColor=default;endArrow=classic;strokeColor=default;" edge="1" parent="1" source="11" target="18">
                    <mxGeometry relative="1" as="geometry"/>
                </mxCell>
                <mxCell id="11" value="Print &quot;integer &lt;br&gt;is a leap &lt;br&gt;year&quot;" style="shape=parallelogram;html=1;strokeWidth=2;perimeter=parallelogramPerimeter;whiteSpace=wrap;rounded=1;arcSize=12;size=0.23;" vertex="1" parent="1">
                    <mxGeometry x="335" y="680" width="130" height="60" as="geometry"/>
                </mxCell>
                <mxCell id="20" style="edgeStyle=orthogonalEdgeStyle;shape=connector;rounded=0;html=1;exitX=0.5;exitY=1;exitDx=0;exitDy=0;entryX=0.5;entryY=0;entryDx=0;entryDy=0;entryPerimeter=0;labelBackgroundColor=default;fontFamily=Helvetica;fontSize=11;fontColor=default;endArrow=classic;strokeColor=default;" edge="1" parent="1" source="13" target="18">
                    <mxGeometry relative="1" as="geometry">
                        <Array as="points">
                            <mxPoint x="545" y="760"/>
                            <mxPoint x="400" y="760"/>
                        </Array>
                    </mxGeometry>
                </mxCell>
                <mxCell id="13" value="Print &quot;integer&lt;br&gt;&amp;nbsp;is not a leap&lt;br&gt;&amp;nbsp;year&quot;" style="shape=parallelogram;html=1;strokeWidth=2;perimeter=parallelogramPerimeter;whiteSpace=wrap;rounded=1;arcSize=12;size=0.23;" vertex="1" parent="1">
                    <mxGeometry x="480" y="620" width="130" height="60" as="geometry"/>
                </mxCell>
                <mxCell id="21" style="edgeStyle=orthogonalEdgeStyle;shape=connector;rounded=0;html=1;exitX=0.5;exitY=1;exitDx=0;exitDy=0;entryX=0.5;entryY=0;entryDx=0;entryDy=0;entryPerimeter=0;labelBackgroundColor=default;fontFamily=Helvetica;fontSize=11;fontColor=default;endArrow=classic;strokeColor=default;" edge="1" parent="1" source="15" target="18">
                    <mxGeometry relative="1" as="geometry">
                        <Array as="points">
                            <mxPoint x="665" y="760"/>
                            <mxPoint x="400" y="760"/>
                        </Array>
                    </mxGeometry>
                </mxCell>
                <mxCell id="15" value="Print &quot;year is &lt;br&gt;not a year&quot;" style="shape=parallelogram;html=1;strokeWidth=2;perimeter=parallelogramPerimeter;whiteSpace=wrap;rounded=1;arcSize=12;size=0.23;fontFamily=Helvetica;fontSize=11;fontColor=default;" vertex="1" parent="1">
                    <mxGeometry x="610" y="420" width="110" height="60" as="geometry"/>
                </mxCell>
                <mxCell id="18" value="Stop" style="strokeWidth=2;html=1;shape=mxgraph.flowchart.start_1;whiteSpace=wrap;fontFamily=Helvetica;fontSize=11;fontColor=default;" vertex="1" parent="1">
                    <mxGeometry x="350" y="780" width="100" height="60" as="geometry"/>
                </mxCell>
            </root>
        </mxGraphModel>
    </diagram>
</mxfile>